<?xml version="1.0" standalone="no"?>
<svg xmlns:xlink="http://www.w3.org/1999/xlink" id="wave" style="transform:rotate(180deg); transition: 0.3s" viewBox="0 0 1440 120" version="1.1" xmlns="http://www.w3.org/2000/svg"><defs><linearGradient id="sw-gradient-0" x1="0" x2="0" y1="1" y2="0"><stop stop-color="rgba(165, 179, 170, 1)" offset="0%"/><stop stop-color="rgba(12, 165, 176, 1)" offset="100%"/></linearGradient></defs><path style="transform:translate(0, 0px); opacity:1" fill="url(#sw-gradient-0)" d="M0,0L26.7,18C53.3,36,107,72,160,74C213.3,76,267,44,320,32C373.3,20,427,28,480,30C533.3,32,587,28,640,24C693.3,20,747,16,800,22C853.3,28,907,44,960,60C1013.3,76,1067,92,1120,82C1173.3,72,1227,36,1280,36C1333.3,36,1387,72,1440,82C1493.3,92,1547,76,1600,62C1653.3,48,1707,36,1760,40C1813.3,44,1867,64,1920,62C1973.3,60,2027,36,2080,32C2133.3,28,2187,44,2240,42C2293.3,40,2347,20,2400,16C2453.3,12,2507,24,2560,28C2613.3,32,2667,28,2720,28C2773.3,28,2827,32,2880,34C2933.3,36,2987,36,3040,36C3093.3,36,3147,36,3200,46C3253.3,56,3307,76,3360,78C3413.3,80,3467,64,3520,48C3573.3,32,3627,16,3680,26C3733.3,36,3787,72,3813,90L3840,108L3840,120L3813.3,120C3786.7,120,3733,120,3680,120C3626.7,120,3573,120,3520,120C3466.7,120,3413,120,3360,120C3306.7,120,3253,120,3200,120C3146.7,120,3093,120,3040,120C2986.7,120,2933,120,2880,120C2826.7,120,2773,120,2720,120C2666.7,120,2613,120,2560,120C2506.7,120,2453,120,2400,120C2346.7,120,2293,120,2240,120C2186.7,120,2133,120,2080,120C2026.7,120,1973,120,1920,120C1866.7,120,1813,120,1760,120C1706.7,120,1653,120,1600,120C1546.7,120,1493,120,1440,120C1386.7,120,1333,120,1280,120C1226.7,120,1173,120,1120,120C1066.7,120,1013,120,960,120C906.7,120,853,120,800,120C746.7,120,693,120,640,120C586.7,120,533,120,480,120C426.7,120,373,120,320,120C266.7,120,213,120,160,120C106.7,120,53,120,27,120L0,120Z"/></svg>